<svg width="26" height="25" viewBox="0 0 26 25" fill="none" xmlns="http://www.w3.org/2000/svg">
<path d="M0 23.7342V5.06329C0 4.85232 0.0421941 4.66245 0.126582 4.49367C0.21097 4.32489 0.337553 4.17722 0.506329 4.05063L5.56962 0.253165C5.80169 0.0843882 6.05485 0 6.32911 0C6.60338 0 6.85654 0.0843882 7.08861 0.253165L12.1519 4.05063C12.3207 4.17722 12.4473 4.32489 12.5316 4.49367C12.616 4.66245 12.6582 4.85232 12.6582 5.06329V7.27848H24.0506C24.4093 7.27848 24.7099 7.39979 24.9525 7.64241C25.1951 7.88502 25.3165 8.18565 25.3165 8.5443V23.7342C25.3165 24.0928 25.1951 24.3935 24.9525 24.6361C24.7099 24.8787 24.4093 25 24.0506 25H1.26582C0.907173 25 0.60654 24.8787 0.363924 24.6361C0.121308 24.3935 0 24.0928 0 23.7342ZM2.53165 22.4684H5.06329V19.9367H2.53165V22.4684ZM2.53165 17.4051H5.06329V14.8734H2.53165V17.4051ZM2.53165 12.3418H5.06329V9.81013H2.53165V12.3418ZM2.53165 7.27848H5.06329V4.74684H2.53165V7.27848ZM7.59494 7.27848H10.1266V4.74684H7.59494V7.27848ZM7.59494 22.4684H22.7848V9.81013H7.59494V22.4684ZM16.4557 12.3418H18.9873C19.346 12.3418 19.6466 12.4631 19.8892 12.7057C20.1319 12.9483 20.2532 13.2489 20.2532 13.6076C20.2532 13.9662 20.1319 14.2669 19.8892 14.5095C19.6466 14.7521 19.346 14.8734 18.9873 14.8734H16.4557C16.097 14.8734 15.7964 14.7521 15.5538 14.5095C15.3112 14.2669 15.1899 13.9662 15.1899 13.6076C15.1899 13.2489 15.3112 12.9483 15.5538 12.7057C15.7964 12.4631 16.097 12.3418 16.4557 12.3418ZM16.4557 17.4051H18.9873C19.346 17.4051 19.6466 17.5264 19.8892 17.769C20.1319 18.0116 20.2532 18.3122 20.2532 18.6709C20.2532 19.0295 20.1319 19.3302 19.8892 19.5728C19.6466 19.8154 19.346 19.9367 18.9873 19.9367H16.4557C16.097 19.9367 15.7964 19.8154 15.5538 19.5728C15.3112 19.3302 15.1899 19.0295 15.1899 18.6709C15.1899 18.3122 15.3112 18.0116 15.5538 17.769C15.7964 17.5264 16.097 17.4051 16.4557 17.4051ZM12.6582 13.6076C12.6582 13.9662 12.5369 14.2669 12.2943 14.5095C12.0517 14.7521 11.7511 14.8734 11.3924 14.8734C11.0338 14.8734 10.7331 14.7521 10.4905 14.5095C10.2479 14.2669 10.1266 13.9662 10.1266 13.6076C10.1266 13.2489 10.2479 12.9483 10.4905 12.7057C10.7331 12.4631 11.0338 12.3418 11.3924 12.3418C11.7511 12.3418 12.0517 12.4631 12.2943 12.7057C12.5369 12.9483 12.6582 13.2489 12.6582 13.6076ZM11.3924 19.9367C11.0338 19.9367 10.7331 19.8154 10.4905 19.5728C10.2479 19.3302 10.1266 19.0295 10.1266 18.6709C10.1266 18.3122 10.2479 18.0116 10.4905 17.769C10.7331 17.5264 11.0338 17.4051 11.3924 17.4051C11.7511 17.4051 12.0517 17.5264 12.2943 17.769C12.5369 18.0116 12.6582 18.3122 12.6582 18.6709C12.6582 19.0295 12.5369 19.3302 12.2943 19.5728C12.0517 19.8154 11.7511 19.9367 11.3924 19.9367Z" fill="#171716"/>
</svg>
