<svg width="25" height="25" viewBox="0 0 25 25" fill="none" xmlns="http://www.w3.org/2000/svg">
<path opacity="0.85" d="M6.94444 18.0556V19.7917C6.94444 20.0926 7.04282 20.3414 7.23958 20.5382C7.43634 20.735 7.68518 20.8333 7.98611 20.8333C8.28704 20.8333 8.53588 20.735 8.73264 20.5382C8.9294 20.3414 9.02778 20.0926 9.02778 19.7917V18.0556H10.7639C11.0648 18.0556 11.3137 17.9572 11.5104 17.7604C11.7072 17.5637 11.8056 17.3148 11.8056 17.0139C11.8056 16.713 11.7072 16.4641 11.5104 16.2674C11.3137 16.0706 11.0648 15.9722 10.7639 15.9722H9.02778V14.2361C9.02778 13.9352 8.9294 13.6863 8.73264 13.4896C8.53588 13.2928 8.28704 13.1944 7.98611 13.1944C7.68518 13.1944 7.43634 13.2928 7.23958 13.4896C7.04282 13.6863 6.94444 13.9352 6.94444 14.2361V15.9722H5.20833C4.90741 15.9722 4.65856 16.0706 4.46181 16.2674C4.26505 16.4641 4.16667 16.713 4.16667 17.0139C4.16667 17.3148 4.26505 17.5637 4.46181 17.7604C4.65856 17.9572 4.90741 18.0556 5.20833 18.0556H6.94444ZM14.9306 19.7917H19.7917C20.0926 19.7917 20.3414 19.6933 20.5382 19.4965C20.735 19.2998 20.8333 19.0509 20.8333 18.75C20.8333 18.4491 20.735 18.2002 20.5382 18.0035C20.3414 17.8067 20.0926 17.7083 19.7917 17.7083H14.9306C14.6296 17.7083 14.3808 17.8067 14.184 18.0035C13.9873 18.2002 13.8889 18.4491 13.8889 18.75C13.8889 19.0509 13.9873 19.2998 14.184 19.4965C14.3808 19.6933 14.6296 19.7917 14.9306 19.7917ZM14.9306 16.3194H19.7917C20.0926 16.3194 20.3414 16.2211 20.5382 16.0243C20.735 15.8275 20.8333 15.5787 20.8333 15.2778C20.8333 14.9769 20.735 14.728 20.5382 14.5312C20.3414 14.3345 20.0926 14.2361 19.7917 14.2361H14.9306C14.6296 14.2361 14.3808 14.3345 14.184 14.5312C13.9873 14.728 13.8889 14.9769 13.8889 15.2778C13.8889 15.5787 13.9873 15.8275 14.184 16.0243C14.3808 16.2211 14.6296 16.3194 14.9306 16.3194ZM17.3611 9.09722L18.5764 10.3125C18.7847 10.5208 19.0278 10.625 19.3056 10.625C19.5833 10.625 19.8264 10.5208 20.0347 10.3125C20.2199 10.1273 20.3183 9.89005 20.3299 9.60069C20.3414 9.31134 20.2546 9.0625 20.0694 8.85417L18.8194 7.56944L20.0347 6.35417C20.2431 6.14583 20.3472 5.90278 20.3472 5.625C20.3472 5.34722 20.2431 5.10417 20.0347 4.89583C19.8264 4.6875 19.5833 4.58333 19.3056 4.58333C19.0278 4.58333 18.7847 4.6875 18.5764 4.89583L17.3611 6.11111L16.1458 4.89583C15.9375 4.6875 15.6944 4.58333 15.4167 4.58333C15.1389 4.58333 14.8958 4.6875 14.6875 4.89583C14.4792 5.10417 14.375 5.34722 14.375 5.625C14.375 5.90278 14.4792 6.14583 14.6875 6.35417L15.9028 7.56944L14.6528 8.85417C14.4676 9.0625 14.375 9.30556 14.375 9.58333C14.375 9.86111 14.4792 10.1042 14.6875 10.3125C14.8958 10.5208 15.1389 10.625 15.4167 10.625C15.6944 10.625 15.9375 10.5208 16.1458 10.3125L17.3611 9.09722ZM5.55556 8.61111H10.4167C10.7176 8.61111 10.9664 8.51273 11.1632 8.31597C11.36 8.11921 11.4583 7.87037 11.4583 7.56944C11.4583 7.26852 11.36 7.01968 11.1632 6.82292C10.9664 6.62616 10.7176 6.52778 10.4167 6.52778H5.55556C5.25463 6.52778 5.00579 6.62616 4.80903 6.82292C4.61227 7.01968 4.51389 7.26852 4.51389 7.56944C4.51389 7.87037 4.61227 8.11921 4.80903 8.31597C5.00579 8.51273 5.25463 8.61111 5.55556 8.61111ZM2.77778 25C2.01389 25 1.35995 24.728 0.815972 24.184C0.271991 23.64 0 22.9861 0 22.2222V2.77778C0 2.01389 0.271991 1.35995 0.815972 0.815972C1.35995 0.271991 2.01389 0 2.77778 0H22.2222C22.9861 0 23.64 0.271991 24.184 0.815972C24.728 1.35995 25 2.01389 25 2.77778V22.2222C25 22.9861 24.728 23.64 24.184 24.184C23.64 24.728 22.9861 25 22.2222 25H2.77778ZM2.77778 22.2222H22.2222V2.77778H2.77778V22.2222Z" fill="white"/>
</svg>
